<mxfile host="app.diagrams.net" modified="2024-01-30T09:09:49.264Z" agent="Mozilla/5.0 (Macintosh; Intel Mac OS X 10_15_7) AppleWebKit/537.36 (KHTML, like Gecko) Chrome/120.0.0.0 Safari/537.36" version="23.0.2" etag="3powGnOme7fArRhe8QBJ" type="github">
  <diagram name="Halaman-1" id="bUL9FeDTIkW3OVhN8-wO">
    <mxGraphModel>
      <root>
        <mxCell id="0" />
        <mxCell id="1" parent="0" />
      </root>
    </mxGraphModel>
  </diagram>
</mxfile>
